<svg width="46" height="46" viewBox="0 0 46 46" fill="none" xmlns="http://www.w3.org/2000/svg">
<g filter="url(#filter0_b_1_4787)">
<rect x="1" y="1" width="44" height="44" rx="22" fill="white" fill-opacity="0.02"/>
<rect x="1" y="1" width="44" height="44" rx="22" stroke="white" stroke-opacity="0.2"/>
<path d="M23.02 13.9099C19.71 13.9099 17.02 16.5999 17.02 19.9099V22.7999C17.02 23.4099 16.76 24.3399 16.45 24.8599L15.3 26.7699C14.59 27.9499 15.08 29.2599 16.38 29.6999C20.69 31.1399 25.34 31.1399 29.65 29.6999C30.86 29.2999 31.39 27.8699 30.73 26.7699L29.58 24.8599C29.28 24.3399 29.02 23.4099 29.02 22.7999V19.9099C29.02 16.6099 26.32 13.9099 23.02 13.9099Z" stroke="white" stroke-width="1.5" stroke-miterlimit="10" stroke-linecap="round"/>
<path d="M24.87 14.1999C24.56 14.1099 24.24 14.0399 23.91 13.9999C22.95 13.8799 22.03 13.9499 21.17 14.1999C21.46 13.4599 22.18 12.9399 23.02 12.9399C23.86 12.9399 24.58 13.4599 24.87 14.1999Z" stroke="white" stroke-width="1.5" stroke-miterlimit="10" stroke-linecap="round" stroke-linejoin="round"/>
<path d="M26.02 30.0601C26.02 31.7101 24.67 33.0601 23.02 33.0601C22.2 33.0601 21.44 32.7201 20.9 32.1801C20.36 31.6401 20.02 30.8801 20.02 30.0601" stroke="white" stroke-width="1.5" stroke-miterlimit="10"/>
</g>
<defs>
<filter id="filter0_b_1_4787" x="-9.5" y="-9.5" width="65" height="65" filterUnits="userSpaceOnUse" color-interpolation-filters="sRGB">
<feFlood flood-opacity="0" result="BackgroundImageFix"/>
<feGaussianBlur in="BackgroundImageFix" stdDeviation="5"/>
<feComposite in2="SourceAlpha" operator="in" result="effect1_backgroundBlur_1_4787"/>
<feBlend mode="normal" in="SourceGraphic" in2="effect1_backgroundBlur_1_4787" result="shape"/>
</filter>
</defs>
</svg>
