<svg width="24" height="24" viewBox="0 0 24 24" fill="none" xmlns="http://www.w3.org/2000/svg">
<path d="M7.92999 4.48L2.59 7.45003C1.38 8.12003 0.390015 9.80001 0.390015 11.18V16.83C0.390015 18.21 1.38 19.89 2.59 20.56L7.92999 23.53C9.06999 24.16 10.94 24.16 12.08 23.53L17.42 20.56C18.63 19.89 19.62 18.21 19.62 16.83V11.18C19.62 9.80001 18.63 8.12003 17.42 7.45003L12.08 4.48C10.93 3.84 9.06999 3.84 7.92999 4.48Z" fill="#FD683D"/>
<path d="M3.17004 7.43994L12 12.5499L20.77 7.46991" stroke="#1D272F" stroke-width="1.5" stroke-linecap="round" stroke-linejoin="round"/>
<path d="M12 21.61V12.54" stroke="#1D272F" stroke-width="1.5" stroke-linecap="round" stroke-linejoin="round"/>
<path d="M9.92999 2.48L4.59 5.45003C3.38 6.12003 2.39001 7.80001 2.39001 9.18001V14.83C2.39001 16.21 3.38 17.89 4.59 18.56L9.92999 21.53C11.07 22.16 12.94 22.16 14.08 21.53L19.42 18.56C20.63 17.89 21.62 16.21 21.62 14.83V9.18001C21.62 7.80001 20.63 6.12003 19.42 5.45003L14.08 2.48C12.93 1.84 11.07 1.84 9.92999 2.48Z" stroke="#1D272F" stroke-width="1.5" stroke-linecap="round" stroke-linejoin="round"/>
<path d="M17 13.2401V9.58014L7.51001 4.1001" stroke="#1D272F" stroke-width="1.5" stroke-linecap="round" stroke-linejoin="round"/>
</svg>
