<svg width="21" height="21" viewBox="0 0 21 21" fill="none" xmlns="http://www.w3.org/2000/svg">
<path d="M18.54 5.31994L12.78 1.28994C11.21 0.189938 8.79999 0.249938 7.28999 1.41994L2.27999 5.32994C1.27999 6.10994 0.48999 7.70994 0.48999 8.96994V15.8699C0.48999 18.4199 2.55999 20.4999 5.10999 20.4999H15.89C18.44 20.4999 20.51 18.4299 20.51 15.8799V9.09994C20.51 7.74994 19.64 6.08994 18.54 5.31994ZM11.25 16.4999C11.25 16.9099 10.91 17.2499 10.5 17.2499C10.09 17.2499 9.74999 16.9099 9.74999 16.4999V13.4999C9.74999 13.0899 10.09 12.7499 10.5 12.7499C10.91 12.7499 11.25 13.0899 11.25 13.4999V16.4999Z" fill="#1D272F"/>
</svg>
